<?xml version="1.0" encoding="UTF-8" standalone="no"?>
<svg
   version="1.0"
   width="658pt"
   height="715.60498pt"
   viewBox="0 0 658 715.60498"
   preserveAspectRatio="xMidYMid"
   id="svg2"
   xmlns="http://www.w3.org/2000/svg"
   xmlns:svg="http://www.w3.org/2000/svg">
  <defs
     id="defs2" />
  <g
     transform="matrix(0.09999849,0,0,-0.09999849,-129.98809,808.52857)"
     fill="#ffffff"
     stroke="none"
     id="g2">
    <path
       d="m 4519,8077 c -85,-24 -149,-86 -174,-169 -19,-65 -19,-91 0,-156 20,-65 96,-146 156,-164 23,-6 43,-17 45,-22 2,-6 0,-83 -4,-171 l -7,-160 -64,-7 c -87,-10 -191,-42 -276,-86 -94,-49 -205,-159 -229,-227 -10,-27 -21,-56 -24,-63 -4,-7 -56,-30 -117,-51 -519,-179 -922,-515 -1144,-951 -123,-240 -170,-425 -178,-695 -5,-154 -2,-198 16,-304 58,-339 221,-657 469,-912 l 54,-57 -33,-7 c -80,-17 -153,-78 -205,-171 l -35,-64 -62,31 c -34,17 -93,54 -130,81 l -68,50 18,27 c 121,184 151,407 82,608 -52,151 -179,298 -320,371 -101,52 -162,64 -177,35 -19,-34 -113,-384 -110,-405 2,-14 20,-30 48,-45 61,-33 87,-59 106,-109 42,-110 -30,-239 -144,-260 -60,-12 -120,5 -164,44 -23,20 -47,51 -55,69 -19,47 -16,120 8,170 11,23 19,51 17,60 -4,25 -373,206 -403,199 -15,-4 -32,-27 -53,-73 -136,-296 -43,-638 224,-829 105,-75 257,-123 391,-124 l 58,-1 35,-55 c 51,-82 179,-214 278,-289 80,-60 247,-154 298,-167 18,-4 23,-16 29,-64 15,-121 66,-246 138,-338 42,-53 132,-118 203,-146 33,-13 60,-24 62,-25 1,-1 16,-55 33,-119 152,-593 491,-1057 929,-1276 104,-53 227,-95 334,-115 107,-21 325,-21 434,0 170,33 393,131 537,237 111,82 300,279 388,406 134,193 265,477 325,707 11,44 26,99 32,123 6,23 17,42 24,42 8,0 50,18 94,40 97,49 170,123 225,228 39,73 77,201 77,257 0,30 4,33 78,65 85,37 178,92 256,150 69,51 223,212 268,281 l 37,56 93,6 c 185,12 316,72 448,206 134,136 190,270 190,462 0,155 -63,350 -115,356 -26,3 -385,-167 -399,-189 -8,-13 -5,-28 11,-60 30,-61 36,-100 23,-149 -47,-173 -273,-202 -360,-46 -17,29 -24,57 -24,92 0,85 38,137 139,191 11,6 21,23 23,37 4,29 -94,385 -111,406 -17,20 -75,8 -163,-35 -115,-57 -236,-178 -292,-294 -23,-47 -49,-112 -57,-145 -18,-69 -20,-216 -4,-301 11,-62 63,-183 99,-234 12,-16 19,-34 16,-39 -15,-23 -228,-161 -249,-161 -3,0 -16,21 -28,48 -45,93 -165,192 -234,192 -15,0 -9,11 31,53 240,247 406,560 471,883 25,129 25,442 -1,579 -118,631 -606,1163 -1286,1399 -68,24 -128,50 -132,57 -4,8 -15,37 -24,64 -27,77 -136,180 -244,233 -96,47 -219,82 -292,82 h -48 v 93 c 0,50 3,128 7,172 l 6,80 59,29 c 186,89 193,350 13,448 -61,33 -134,42 -196,25 z m 150,-108 c 35,-21 70,-57 71,-73 0,-4 -16,6 -35,22 -59,53 -153,56 -226,7 l -40,-26 17,26 c 40,61 148,84 213,44 z m 74,-844 c 103,-18 177,-49 263,-110 63,-46 103,-86 49,-51 -56,37 -91,54 -160,79 -118,43 -173,51 -315,51 -115,0 -150,-5 -235,-28 -58,-15 -128,-43 -168,-66 -37,-21 -65,-34 -62,-29 11,17 126,91 182,115 113,50 292,66 446,39 z m 157,-315 c 683,-97 1254,-479 1519,-1015 67,-135 104,-237 132,-365 139,-639 -149,-1287 -751,-1687 -847,-563 -2076,-438 -2755,279 -323,341 -488,791 -446,1218 67,680 558,1242 1296,1483 305,100 685,133 1005,87 z M 2274,4708 c 61,-36 138,-108 174,-163 32,-49 74,-136 69,-141 -2,-2 -20,19 -41,46 -21,27 -74,84 -118,125 -117,110 -144,112 -200,15 -21,-36 -38,-61 -38,-57 0,8 46,178 55,205 6,17 32,9 99,-30 z m 4760,-65 c 16,-60 31,-115 33,-123 2,-8 -10,12 -28,45 -41,78 -57,95 -89,95 -44,0 -193,-136 -274,-250 l -18,-25 7,25 c 16,55 81,156 139,214 54,54 162,125 191,126 6,0 24,-48 39,-107 z M 1693,4291 c -13,-43 -12,-116 2,-168 3,-10 -4,0 -15,22 -13,27 -20,61 -20,102 v 61 l -74,31 c -41,17 -84,31 -95,31 -26,0 -56,-39 -76,-101 -9,-27 -19,-49 -21,-49 -8,0 6,89 23,150 27,98 17,97 162,28 l 128,-60 z m 6066,107 c 11,-35 23,-90 26,-123 l 6,-60 -26,65 c -40,102 -56,107 -168,59 l -73,-31 -2,-64 c -1,-56 -22,-134 -36,-134 -2,0 0,15 5,32 12,44 10,116 -4,158 l -13,35 126,62 c 69,33 128,62 132,62 3,1 16,-27 27,-61 z M 3118,3782 c 26,-17 -4,-59 -68,-93 -84,-45 -160,-129 -215,-242 -46,-93 -47,-91 -13,43 38,151 114,267 190,289 42,12 89,13 106,3 z m 3045,-3 c 88,-24 158,-130 203,-305 13,-53 24,-101 24,-106 0,-5 -23,36 -51,92 -59,117 -124,189 -214,234 -48,25 -75,54 -75,81 0,14 68,17 113,4 z M 3326,3658 c 61,-40 149,-93 197,-117 48,-25 87,-51 87,-59 0,-8 18,-48 40,-90 128,-244 372,-416 692,-489 102,-23 394,-23 496,0 321,73 566,247 692,490 22,43 40,85 40,93 0,8 43,36 98,63 53,27 141,78 194,114 54,36 100,62 102,59 19,-31 63,-254 81,-412 27,-228 10,-693 -26,-737 -20,-23 -141,-109 -230,-161 -90,-54 -268,-134 -381,-171 -97,-32 -140,-68 -188,-155 -28,-51 -53,-82 -77,-97 l -35,-22 -544,7 c -298,4 -557,11 -575,16 -47,14 -77,46 -115,127 -49,103 -77,123 -269,184 -148,49 -357,142 -413,187 -28,21 -37,57 -57,228 -28,240 -15,587 30,806 13,62 48,208 50,208 0,0 50,-33 111,-72 z m -826,38 c 0,-2 -23,-43 -50,-91 -28,-48 -68,-127 -89,-176 l -38,-88 -32,33 -33,34 17,33 c 51,97 225,296 225,255 z m 4267,-63 c 64,-73 121,-150 147,-200 15,-31 15,-32 -15,-57 -17,-14 -34,-26 -38,-26 -5,0 -16,21 -26,48 -22,58 -97,206 -124,247 -22,32 -27,55 -12,55 5,0 36,-30 68,-67 z m -4162,-12 c 3,-5 -15,-70 -39,-143 -25,-73 -50,-163 -57,-200 l -12,-67 -26,15 c -66,39 -64,34 -35,115 14,41 51,122 81,182 50,98 72,123 88,98 z m 4056,-87 c 45,-83 117,-261 108,-267 -2,-2 -17,-13 -33,-25 -37,-28 -56,-28 -56,1 0,28 -71,273 -95,331 -13,32 -14,40 -3,47 22,14 30,6 79,-87 z m -4418,44 c -12,-13 -30,-38 -40,-55 l -20,-33 -22,31 c -13,17 -21,32 -19,33 3,2 107,42 117,45 3,0 -5,-9 -16,-21 z m 4796,-24 c 2,-2 -7,-17 -19,-34 l -22,-31 -29,46 c -16,25 -29,48 -29,50 0,4 91,-25 99,-31 z m -4309,-28 c -12,-32 -57,-266 -65,-338 -4,-32 -9,-58 -11,-58 -11,0 -64,31 -64,38 1,40 87,360 107,395 2,4 13,2 23,-3 16,-8 18,-15 10,-34 z m 3793,-73 c 33,-105 67,-252 67,-288 0,-7 -8,-15 -17,-18 -10,-2 -25,-8 -33,-11 -13,-5 -18,10 -28,91 -7,54 -24,149 -38,212 -21,93 -23,115 -12,122 7,5 16,9 19,9 3,0 22,-53 42,-117 z M 5973,2338 c -44,-161 -92,-289 -164,-435 -168,-341 -415,-607 -695,-750 -346,-177 -707,-176 -1054,3 -292,151 -525,407 -700,769 -61,127 -137,328 -155,413 l -7,33 79,-40 c 112,-56 191,-87 321,-126 62,-18 124,-41 138,-50 14,-9 42,-52 65,-100 42,-88 72,-120 145,-152 34,-15 101,-18 584,-25 300,-4 559,-5 575,-1 48,9 120,50 149,83 14,18 38,56 51,85 31,65 48,76 178,121 135,47 300,127 417,202 52,34 96,61 97,62 0,0 -10,-42 -24,-92 z"
       id="path1" />
    <path
       d="m 4275,6359 c -478,-48 -827,-185 -1081,-422 -178,-166 -302,-404 -333,-640 -53,-391 70,-767 338,-1037 254,-255 587,-411 1032,-481 191,-31 527,-31 718,0 651,103 1109,416 1298,887 42,103 68,222 85,384 25,234 11,339 -62,485 -45,90 -178,263 -272,354 -243,237 -617,395 -1078,456 -147,20 -515,28 -645,14 z m 685,-108 c 63,-11 144,-30 180,-41 l 65,-20 -90,6 c -198,14 -595,6 -770,-15 -425,-50 -764,-166 -1018,-349 -100,-71 -233,-203 -293,-290 -61,-86 -68,-93 -54,-57 153,407 625,696 1270,780 162,21 561,14 710,-14 z M 3952,5360 c 20,-6 58,-25 84,-43 90,-63 152,-227 110,-292 -33,-50 -86,-19 -86,50 0,62 -45,145 -95,172 -126,71 -285,-23 -285,-168 0,-43 -27,-70 -61,-62 -72,19 -32,206 62,286 68,58 180,82 271,57 z m 1460,-6 c 101,-34 176,-135 186,-250 4,-58 3,-63 -21,-79 -20,-13 -30,-14 -46,-5 -21,11 -25,23 -35,94 -12,88 -91,156 -181,156 -113,0 -195,-88 -195,-212 0,-46 -28,-67 -66,-49 -25,11 -29,28 -25,106 6,105 95,213 201,246 43,13 134,10 182,-7 z"
       id="path2" />
  </g>
</svg>
